<svg xmlns="http://www.w3.org/2000/svg" width="40" height="40" viewBox="0 0 40 40">
  <path id="simbolo-goomer" d="M163.375,329.339a.691.691,0,0,0-.643-.721h-2.577a3.44,3.44,0,0,0-3.222,3.609v3.031a3.32,3.32,0,0,0,2.575,3.266v7.75a14.511,14.511,0,0,1-7.088-6.01,12.905,12.905,0,0,0,12.709,9.8,13.413,13.413,0,0,0,5.726-1.27,1.23,1.23,0,0,0,.642-.326,12.57,12.57,0,0,0,6.342-8.207,14.455,14.455,0,0,1-5.875,5.46v-7.133a2.172,2.172,0,0,0,1.28-2.04v-7.213a.645.645,0,1,0-1.28,0v4.689a.653.653,0,1,1-1.3,0v-4.689a.645.645,0,1,0-1.28,0v4.689a.654.654,0,1,1-1.3,0v-4.689a.645.645,0,1,0-1.28,0v7.213a2.174,2.174,0,0,0,1.28,2.04v8.469a15.243,15.243,0,0,1-2.955.287,15.5,15.5,0,0,1-1.754-.1Zm1.989,28.24a19.9,19.9,0,0,0,10.858-3.2l4.168,1.574c1.378.623,2.229-.139,1.667-1.55l-1.438-3.889a20,20,0,1,0-15.255,7.069" transform="translate(-145.363 -317.579)" fill="#009ca3" fill-rule="evenodd"/>
</svg>
